<svg width="38" height="29" viewBox="0 0 38 29" fill="none" xmlns="http://www.w3.org/2000/svg">
<path fill-rule="evenodd" clip-rule="evenodd" d="M2.375 23.9V2.52502H35.625V23.9H2.375ZM35.625 0.150024H2.375C1.74511 0.150024 1.14102 0.400247 0.695621 0.845646C0.250223 1.29104 0 1.89514 0 2.52502V26.275C0 26.9049 0.250223 27.509 0.695621 27.9544C1.14102 28.3998 1.74511 28.65 2.375 28.65H35.625C36.2549 28.65 36.859 28.3998 37.3044 27.9544C37.7498 27.509 38 26.9049 38 26.275V2.52502C38 1.89514 37.7498 1.29104 37.3044 0.845646C36.859 0.400247 36.2549 0.150024 35.625 0.150024ZM33.25 14.4H23.75V21.525H33.25V14.4Z" fill="white"/>
</svg>
