<svg width="37" height="31" viewBox="0 0 37 31" fill="none" xmlns="http://www.w3.org/2000/svg">
<path d="M20.7599 1.02811L12.2645 7.97811H2.51921C1.25306 7.97811 0.227539 8.81717 0.227539 9.85311V21.1031C0.227539 22.1383 1.25306 22.9781 2.51921 22.9781H12.2645L20.7599 29.9273C22.1951 31.1015 24.672 30.2765 24.672 28.6015V2.35467C24.672 0.677329 22.1932 -0.143764 20.7599 1.02811ZM32.5238 9.47186C31.4181 8.97733 30.023 9.30311 29.41 10.2101C28.7999 11.1172 29.2038 12.257 30.3124 12.7578C31.5451 13.3125 32.3109 14.3547 32.3109 15.4781C32.3109 16.6015 31.5451 17.6437 30.3133 18.1976C29.2047 18.6984 28.8008 19.8383 29.411 20.7453C30.0249 21.6562 31.4209 21.9797 32.5248 21.4836C35.2203 20.2687 36.8952 17.968 36.8952 15.4773C36.8952 12.9867 35.2203 10.6867 32.5238 9.47186Z" fill="white"/>
</svg>
