<svg width="38" height="39" viewBox="0 0 38 39" fill="none" xmlns="http://www.w3.org/2000/svg">
<path d="M14.249 4.9508L8.58544 11.9H2.08857C1.24447 11.9 0.560791 12.7391 0.560791 13.775V25.025C0.560791 26.0602 1.24447 26.9 2.08857 26.9H8.58544L14.249 33.8492C15.2058 35.0235 16.8571 34.1985 16.8571 32.5235V6.27658C16.8571 4.60002 15.2045 3.77815 14.249 4.9508ZM29.1016 0.960176C28.3905 0.38752 27.435 0.628927 26.9684 1.50315C26.5012 2.3758 26.6998 3.54846 27.4109 4.12111C31.6294 7.51877 34.1471 13.2305 34.1471 19.4008C34.1471 25.5711 31.6294 31.2828 27.4109 34.6805C26.6998 35.2524 26.5012 36.4258 26.9684 37.2977C27.4166 38.1344 28.3644 38.4352 29.1016 37.8406C34.1891 33.7422 37.2275 26.8477 37.2275 19.4C37.2275 11.9524 34.1891 5.05861 29.1016 0.960176ZM31.1163 19.4C31.1163 14.4367 29.0755 9.87346 25.6565 7.19377C24.9441 6.63596 23.9994 6.89533 23.5481 7.77658C23.0968 8.65783 23.3075 9.82424 24.0198 10.3828C26.5502 12.3664 28.0608 15.7367 28.0608 19.4C28.0608 23.0633 26.5502 26.4336 24.0198 28.4172C23.3075 28.975 23.0968 30.1414 23.5481 31.0235C23.9625 31.8328 24.8926 32.2063 25.6565 31.6063C29.0755 28.9266 31.1163 24.3641 31.1163 19.4ZM22.0916 13.3946C21.3545 12.9 20.4244 13.2258 20.0158 14.1328C19.609 15.0399 19.8783 16.1797 20.6173 16.6805C21.4391 17.2344 21.9497 18.2774 21.9497 19.4C21.9497 20.5235 21.4391 21.5656 20.618 22.1196C19.8789 22.6203 19.6096 23.7602 20.0164 24.6672C20.4257 25.5781 21.3564 25.9016 22.0923 25.4055C23.8893 24.1906 25.0059 21.8899 25.0059 19.3992C25.0059 16.9086 23.8893 14.6086 22.0916 13.3946Z" fill="#B3B3B3"/>
</svg>
